<?xml version="1.0" encoding="UTF-8"?>
<!-- Created with Inkscape (http://www.inkscape.org/) -->
<svg width="512" height="512" version="1.1" viewBox="0 0 512 512" xmlns="http://www.w3.org/2000/svg">
 <circle cx="256" cy="256" r="256" style="font-variation-settings:'wght' 800"/>
 <g fill="#fff" stroke-width="0">
  <path d="m256 59.898c-46.777 0-84.436 37.658-84.436 84.436v66.442h29.029v-63.458c0-30.695 24.711-57.406 55.406-57.406s55.406 26.711 55.406 57.406v63.458h29.029v-66.442c0-46.777-37.658-84.436-84.436-84.436z" style="font-variation-settings:'wght' 800"/>
  <path d="m162.07 183.18c-13.787 0-24.885 11.098-24.885 24.885v187.86c0 13.787 11.098 24.885 24.885 24.885h187.86c13.787 0 24.885-11.098 24.885-24.885v-187.86c0-13.787-11.098-24.885-24.885-24.885zm93.932 82.816a23.371 23.371 0 0 1 23.371 23.371 23.371 23.371 0 0 1-7.6152 17.211l9.8945 48.668h-51.301l9.8945-48.668a23.371 23.371 0 0 1-7.6152-17.211 23.371 23.371 0 0 1 23.371-23.371z" style="font-variation-settings:'wght' 800"/>
 </g>
</svg>
